<svg xmlns="http://www.w3.org/2000/svg" viewBox="0 0 256 256" width="256" height="256">
  <defs>
    <linearGradient id="bg" x1="0%" y1="0%" x2="100%" y2="100%">
      <stop offset="0%" style="stop-color:#1a1a2e;stop-opacity:1" />
      <stop offset="100%" style="stop-color:#16213e;stop-opacity:1" />
    </linearGradient>
  </defs>
  <rect width="256" height="256" rx="40" fill="url(#bg)"/>
  <rect x="48" y="40" width="160" height="176" rx="8" fill="#0f3460"/>
  <rect x="56" y="48" width="144" height="160" rx="4" fill="white"/>
  <line x1="56" y1="75" x2="200" y2="75" stroke="#e94560" stroke-width="3"/>
  <rect x="68" y="85" width="60" height="8" rx="2" fill="#1a1a2e"/>
  <rect x="68" y="100" width="80" height="6" rx="2" fill="#ccc"/>
  <rect x="68" y="112" width="70" height="6" rx="2" fill="#ccc"/>
  <rect x="68" y="124" width="75" height="6" rx="2" fill="#ccc"/>
  <rect x="68" y="140" width="60" height="6" rx="2" fill="#ccc"/>
  <rect x="68" y="152" width="65" height="6" rx="2" fill="#ccc"/>
  <rect x="68" y="164" width="55" height="6" rx="2" fill="#ccc"/>
  <rect x="140" y="85" width="56" height="85" rx="4" fill="#e94560" opacity="0.2"/>
  <text x="168" y="135" font-family="Arial" font-size="32" font-weight="bold" fill="#e94560" text-anchor="middle">S</text>
</svg>
